<svg width="65" height="60" fill="none" xmlns="http://www.w3.org/2000/svg"><g clip-path="url(#clip0)" fill="#1E1E1E"><path d="M34.138 41.38H30a2.075 2.075 0 01-2.069-2.07c0-1.138.931-2.069 2.069-2.069h4.138c1.138 0 2.069.931 2.069 2.07h2.069a4.15 4.15 0 00-4.138-4.139h-1.035v-2.069h-2.069v2.07H30a4.15 4.15 0 00-4.138 4.137A4.15 4.15 0 0030 43.448h4.138c1.138 0 2.069.931 2.069 2.07a2.075 2.075 0 01-2.07 2.068H30a2.075 2.075 0 01-2.069-2.069h-2.069A4.15 4.15 0 0030 49.655h1.035v2.07h2.068v-2.07h1.035a4.15 4.15 0 004.138-4.138 4.15 4.15 0 00-4.138-4.138z"/><path d="M46.552 0c-5.793 0-11.224 2.897-14.483 7.63C28.888 3.025 23.586 0 17.586 0 7.888 0 0 7.888 0 17.586c0 9.194 7.1 16.746 16.1 17.509-1.022 2.237-1.617 4.707-1.617 7.319C14.483 52.112 22.37 60 32.069 60c3.672 0 7.203-1.138 10.203-3.285l-1.203-1.68a15.334 15.334 0 01-9 2.896c-8.56 0-15.517-6.957-15.517-15.517 0-8.56 6.957-15.517 15.517-15.517 8.56 0 15.517 6.956 15.517 15.517a15.46 15.46 0 01-3.724 10.06l1.578 1.345a17.608 17.608 0 004.215-11.405 17.27 17.27 0 00-1.616-7.306 17.366 17.366 0 008.715-3.22l-1.202-1.681a15.41 15.41 0 01-8.6 2.883c-2.857-4.551-7.745-7.706-13.383-8.185a17.597 17.597 0 001.603-7.319c0-2.87-.71-5.573-1.926-7.965a15.541 15.541 0 0113.306-7.552c8.56 0 15.517 6.957 15.517 15.517a15.46 15.46 0 01-3.724 10.06l1.577 1.345a17.608 17.608 0 004.216-11.405C64.138 7.888 56.25 0 46.552 0zM31.28 24.866c-5.935.259-11.108 3.479-14.095 8.212C8.82 32.87 2.07 26.004 2.07 17.586c0-8.56 6.957-15.517 15.517-15.517 8.56 0 15.517 6.957 15.517 15.517 0 2.548-.633 5.043-1.823 7.28z"/><path d="M46.552 24.828a3.112 3.112 0 01-3.104-3.104V20.69h2.07v-2.07h-2.07v-2.068h2.07v-2.07h-2.07v-1.034a3.113 3.113 0 013.104-3.103 3.113 3.113 0 013.103 3.103h2.07a5.17 5.17 0 00-5.173-5.172 5.171 5.171 0 00-5.173 5.172v1.035H39.31v2.069h2.07v2.069h-2.07v2.069h2.07v1.034a5.171 5.171 0 005.172 5.173 5.171 5.171 0 005.172-5.173h-2.069a3.113 3.113 0 01-3.103 3.104zM20.267 10.124a.08.08 0 01.065-.124h1.314c.027 0 .053.014.067.038l1.11 1.793 1.11-1.793a.08.08 0 01.066-.038h1.295a.08.08 0 01.065.123l-1.843 2.815a.08.08 0 01-.066.036h-1.255a.08.08 0 01-.065-.035l-1.863-2.815zm5.73 13.281l-.392-1.338a.078.078 0 00-.115-.047c-.353.202-.978.443-1.961.443-2.262 0-3.274-1.77-3.274-3.524 0-2.084 1.292-3.484 3.215-3.484.951 0 1.576.24 2.087.466.02.01.045.009.067-.002a.08.08 0 00.041-.053l.294-1.3a.08.08 0 00-.04-.088c-.494-.258-1.513-.56-2.763-.56-2.874 0-4.805 1.986-4.805 4.943 0 3.025 2.129 5.139 5.178 5.139 1.055 0 1.967-.27 2.427-.5a.08.08 0 00.04-.095zm-13.013-6.35l5.326-6.688a.14.14 0 00.015-.156.153.153 0 00-.137-.082h-2.242a.16.16 0 00-.122.059l-4.71 6.003v-5.914a.15.15 0 00-.154-.148H9.154a.151.151 0 00-.154.148v13.224a.15.15 0 00.154.148h1.806a.15.15 0 00.153-.148v-4.897l.489-.008 4.786 5.006c.029.03.07.047.113.047h2.138a.158.158 0 00.14-.086.144.144 0 00-.025-.16l-5.77-6.348z"/></g><defs><clipPath id="clip0"><path fill="#fff" d="M0 0h64.138v60H0z"/></clipPath></defs></svg>