<svg fill="none" xmlns="http://www.w3.org/2000/svg"><g fill="#1E1E1E"><path d="M58.847 0H4.199A4.204 4.204 0 000 4.199v37.828a4.204 4.204 0 004.199 4.198h22.596v4.076a1.046 1.046 0 102.093 0v-3.805h5.258v3.805a1.046 1.046 0 102.093 0v-4.076h22.596a4.204 4.204 0 004.199-4.198V4.199A4.186 4.186 0 0058.847 0zm2.093 42.027a2.113 2.113 0 01-2.105 2.105H4.199a2.113 2.113 0 01-2.106-2.105V4.199c0-1.158.948-2.106 2.106-2.106h54.636c1.157 0 2.105.948 2.105 2.106v37.828zM47.235 56.26a1.052 1.052 0 01-1.317.69c-8.83-2.746-20.022-2.734-28.802 0a1.052 1.052 0 01-.628-2.007c9.186-2.857 20.81-2.87 30.045 0 .567.184.875.763.702 1.317z"/><path d="M31.523 9.198c-7.61 0-13.791 6.182-13.791 13.792 0 7.61 6.181 13.791 13.791 13.791S45.314 30.6 45.314 22.99 39.133 9.198 31.523 9.198zm0 25.477c-6.44 0-11.686-5.245-11.686-11.685s5.246-11.686 11.686-11.686c6.44 0 11.686 5.246 11.686 11.686 0 6.44-5.246 11.685-11.686 11.685z"/><path d="M31.523 19.308c.579 0 1.047.468 1.047 1.047a1.046 1.046 0 102.093 0 3.145 3.145 0 00-2.105-2.968v-.443a1.046 1.046 0 10-2.094 0v.443a3.161 3.161 0 00-2.105 2.968v.43c0 1.392.886 2.599 2.216 3.005l1.256.394c.443.136.739.542.739.998v.43a1.046 1.046 0 11-2.093 0 1.046 1.046 0 10-2.094 0c0 1.22.69 2.279 1.712 2.796v.615a1.046 1.046 0 102.093 0v-.332c1.428-.308 2.5-1.576 2.5-3.078v-.431a3.118 3.118 0 00-2.217-3.005l-1.256-.394a1.042 1.042 0 01-.738-.997v-.431c0-.58.467-1.047 1.046-1.047z"/></g></svg>