<svg width="452" height="500" fill="none" xmlns="http://www.w3.org/2000/svg"><g clip-path="url(#clip0)"><path d="M374.931 273.965l-10.69 113.966c-9.31 2.586-76.034-.345-76.034-.345l-10-112.931c0-.172 90.862-1.034 96.724-.69z" fill="#fff"/><path d="M333.551 273.103c-.517 0-55.172.173-55.862.345-.517.173-.689.517-.862 1.035 0 1.724 9.483 108.793 10 113.103 0 .517.517 1.035 1.035 1.207 1.379.172 62.069 2.586 75.345.517 1.206-.172 2.069-.172 2.241-1.379 2.931-32.242 7.414-82.931 10-113.966-.69 0-.862 0 0 0 0-.862 1.552-.862-41.897-.862zm40.69 1.38c.345 0 .517-3.449-4.31 43.965-7.242 71.724-6.552 68.448-6.897 68.448-11.034 1.897-62.414-.172-73.621-.689-3.103-34.311-6.896-76.38-10-110.518 30.863-.344 85.345-1.379 94.828-1.206z" fill="#1E1E1E"/><path d="M171.827 305c21.207 1.207 40.518 5.517 61.035 10.345 18.621 4.482 37.241 9.655 51.724 22.758 26.379 23.793 35.517 63.793.69 84.483-17.587 10.345-38.966 10.862-58.621 7.241-6.552-1.207-12.759-3.965-19.138-5.689-1.379-.345-5.172-2.587-6.724-2.242-1.724.518-2.069 4.483-2.069 6.035-.517 6.379-1.379 12.586-2.241 18.965-.173 1.035-1.035 7.242-2.242 7.242-2.931 0-4.31-7.242-5-9.311-2.586-7.758-1.379-20.862-11.724-22.069-16.207-2.069-21.379 0-37.586-1.896-4.311-.517-18.448-1.552-22.069-.517-2.414.689-2.759 2.586-6.724 12.069-.345.689-3.966 12.241-6.035 9.137-2.586-4.137.862-19.827-3.276-22.413-12.758-7.587-30.172-7.587-41.206-20.69-25.173-30-6.207-73.966 25.344-89.483 10.518-5.172 22.414-6.034 33.793-6.724 16.38-.862 52.069 2.759 52.069 2.759z" fill="#fff"/><path d="M124.586 301.379c-9.138 0-22.241 1.035-31.207 3.621-35.862 10.517-60.172 57.758-36.724 91.034 10.862 15.173 23.793 15.518 38.276 21.552 2.069.862 3.965 1.724 5.862 2.931 2.586 2.069.69 14.483 1.897 19.828.517 1.896 1.551 3.62 3.448 3.103 2.414-.69 4.138-5.345 5-7.586.689-1.897 4.483-12.414 6.034-13.621 2.759-2.069 25.345.517 29.311.69 9.827.517 15-.173 25.172.69 4.828.344 7.759.517 10 2.586 4.31 4.138 3.621 11.896 7.241 23.103.69 2.242 1.897 5.173 3.966 6.035 2.069.862 3.103-.518 3.621-2.587 1.724-8.275 2.931-16.724 3.448-25 0-.862.345-3.793 1.034-4.31.345-.172 2.931.862 3.621 1.207 2.931 1.379.69.345 8.104 2.931 10.172 3.793 21.034 5.862 31.896 5.862 54.828 1.379 80.517-39.655 53.793-80.517-14.655-21.897-33.62-30.173-58.62-36.379-22.932-5.69-46.035-10.69-68.276-11.897.517 0-26.552-3.276-46.897-3.276zm-1.724 117.069c-4.31 0-7.069.173-8.966 3.621-2.758 5.172-5.862 15.517-7.931 18.103-1.896-5 1.38-18.793-3.448-22.241-5.172-3.448-17.069-6.724-23.448-9.138-4.138-1.379-8.104-3.448-11.724-5.862-6.724-5.345-11.897-12.414-14.655-20.517-8.621-24.828 4.31-52.931 25.344-67.759 9.138-6.379 17.414-9.138 28.793-10.517 17.414-2.069 34.138-1.207 56.897.689 22.069 1.725 30.69 2.242 64.138 10.173 16.724 3.965 33.965 8.103 48.276 17.758 10.862 7.587 19.655 17.759 25.345 29.828 11.207 24.483 4.482 48.276-20.69 60.862-15.862 7.759-34.138 8.104-51.552 5.345-8.103-1.379-9.31-2.414-21.379-6.207-3.621-1.207-7.931-4.828-9.828.69-.689 2.413-.517 3.793-1.207 9.655-.344 2.931-1.896 16.207-3.103 19.138 0 .172 0 .172-.172 0-1.552-1.724-2.587-6.38-3.104-8.104-2.414-7.931-1.552-20-11.034-22.586a67.82 67.82 0 00-8.276-1.034c-11.552-.862-17.069.344-30.69-1.035-5.862-.517-11.724-.862-17.586-.862z" fill="#1E1E1E"/><path d="M200.276 422.414c-1.379-3.448-4.311-6.207-7.931-7.414-1.207-.345-3.104 1.207-3.966 1.897-2.931 1.896-5.689 4.137-8.276 6.379 7.587 2.931 6.897 14.31 9.138 21.552.69 2.069 2.069 9.31 5 9.31 1.38 0 2.069-6.379 2.242-7.241 1.034-6.38 1.896-12.587 2.241-18.966 0-2.069.517-3.965 1.552-5.517z" fill="#fff"/><path d="M191.655 413.965c-1.379.173-2.586.69-3.448 1.552-3.103 1.897-6.207 4.138-8.966 6.552-.517.345-.689.862-.517 1.379.345 1.207 1.207.69 2.931 2.241 4.138 3.794 3.793 11.38 6.207 19.656.862 3.275 2.242 8.965 5.517 9.827 1.035.345 2.242-.172 2.587-1.379 1.379-2.414 1.896-8.793 2.241-11.897 1.552-12.413.862-15.172 1.552-17.931.517-1.896 1.034-1.379.862-2.241-.862-2.069-2.242-3.966-3.966-5.517-1.207-1.035-3.103-1.897-5-2.242zm2.414 2.759c2.414 1.207 4.31 3.103 5.345 5.517-1.379 1.897-1.552 5.862-2.069 10-.172 1.897-3.104 20.69-3.793 20.173-.517-.69-1.035-1.38-1.379-2.242-4.483-10.689-2.759-22.758-10.173-27.241 1.379-1.207 2.931-2.414 4.31-3.448 2.759-2.069 4.138-3.449 5.173-3.621 1.207.172 1.896.517 2.586.862z" fill="#1E1E1E"/><path d="M118.379 420.172c-5.345-1.034-10.862-1.207-16.379-.69 3.621 3.276.345 17.931 2.931 22.069 2.069 3.276 5.862-8.448 6.035-9.138 3.965-9.482 4.31-11.551 7.413-12.241z" fill="#fff"/><path d="M101.655 418.276c-.517.172-1.034.689-1.034 1.207.172 1.207 1.034.517 1.551 4.655.518 5.345-.517 13.276 1.035 17.241 1.034 2.414 2.759 2.759 4.138 1.552 2.586-2.241 4.138-8.793 7.414-17.414a9.755 9.755 0 012.069-3.965c1.034-.862 1.724-.518 1.896-1.035.173-.345 0-.69-.345-.69 0 .345-.172.863 0 0-5.345-1.551-11.034-2.068-16.724-1.551zm14.311 2.241c-1.725 1.207-3.104 4.828-4.138 6.897-1.035 2.241-2.069 4.31-2.931 6.724-.863 2.241-1.725 4.138-3.104 6.207-1.207-3.104-.345-10.862-.862-16.552-.172-1.034-.345-2.241-.69-3.276a66.535 66.535 0 0111.725 0zm-32.931-73.965c-2.414 0-4.656.345-7.07.862l-.344.689.69.345c4.482-.689 8.965-.689 13.448.345 13.448 2.414 18.276 3.793 31.551 11.035 11.38 6.207 18.276 10.689 48.794 36.207 26.379 22.413 19.31 18.793 21.724 19.482l.172-.862c-.345-.517-.69-1.034-1.034-1.379-7.587-9.31-33.621-32.241-50.862-45-5.518-4.31-11.38-7.931-17.587-11.035-6.034-3.448-12.413-6.206-19.138-7.931-6.551-1.551-13.448-2.413-20.344-2.758z" fill="#1E1E1E"/><path d="M188.896 377.586c-5 .69-10 1.897-15 3.621-8.793 3.448-7.758 4.138-10.689 5.689-1.207.518-.69 0-1.207 1.035.862.517.689.517.862.345 2.414-.518 3.276-1.552 7.069-2.931 6.207-2.414 12.758-3.966 19.482-5 8.449-1.552 12.242-3.276 16.897-3.449.517 0 .345.173 1.035-.517-.69-.69-.518-.69-1.035-.69-5.345-.517-11.552.863-17.414 1.897z" fill="#1E1E1E"/><path d="M401.31 456.207s14.483-.345 18.104-6.207c1.724-2.931 2.069-8.793 1.207-11.552-.69-2.586-2.069-2.241-5-3.62-8.793-4.138-26.207 12.068-31.035 3.103-.862-1.724-.689 4.828-.689 5.517-.345 2.069.344 4.311 1.724 5.862 3.448 5 10.345 6.207 15.689 6.897z" fill="#fff"/><path d="M406.31 433.966c-4.137 1.207-8.965 3.62-12.758 4.655-7.242 2.241-7.242-1.035-8.276-1.897-.517-.517-1.552-.345-1.897.173l-.172.172c-.69 1.207-.345 4.483-.517 6.724-.173 2.069.517 4.138 1.896 5.862 3.793 5.173 10.518 6.207 16.897 6.897 5 0 12.414-.862 16.552-3.621 1.551-1.034 2.586-2.414 3.275-4.138.863-2.414 1.207-5 1.035-7.586-.172-5-1.552-5.862-3.966-6.724-3.103-.862-5-2.586-12.069-.517zM387.173 450c-1.38-1.379-2.069-3.276-2.242-5.172 0-.69.173-.69.173-1.552v-2.414c6.551 5.345 20.517-6.724 28.62-5 1.207.345 2.586.862 3.793 1.38l1.035.517c1.379 1.207 1.379 8.103 0 11.207-2.069 4.827-12.242 6.551-17.414 6.724-4.828-.862-10.69-2.069-13.965-5.69z" fill="#1E1E1E"/><path d="M401.483 449.655s14.483-.344 18.103-6.206c8.621-14.138-25.689-22.587-34.483-8.276-1.379 2.413-1.034 5.517.69 7.758 3.448 4.828 10.345 6.035 15.69 6.724z" fill="#fff"/><path d="M401.655 450.173c4.138 0 8.276-.518 12.414-1.725 3.793-1.206 6.552-3.103 7.759-6.724 4.31-12.931-22.414-20.517-34.31-10.862-8.104 6.552-4.138 15.173 5.689 17.931 2.759.69 5.517 1.207 8.448 1.38zm-.517-1.035c-5.345-1.034-12.069-2.414-14.827-7.241-.69-1.207-1.035-2.587-.862-3.966.689-2.241 2.069-3.965 3.965-5.345 10.69-7.586 35.69-1.034 29.138 10.345-1.897 3.276-7.759 4.828-11.552 5.517-1.896.345-3.793.69-5.862.69z" fill="#1E1E1E"/><path d="M345.793 427.931c.173 8.103-2.758 34.828-2.931 49.31-.172 8.793-31.034 7.759-32.241 1.035-.518-2.759-2.069-51.035-.518-52.242 2.587-1.551 35.69 1.897 35.69 1.897z" fill="#fff"/><path d="M345.966 427.414c-7.414-.862-23.104-2.587-31.207-2.759-5 0-5.517.345-5.862 2.069-1.38 7.414 0 50.345.689 52.241 1.207 3.793 8.104 5 12.069 5.518 5.69.689 13.966.344 19.138-2.242a5.855 5.855 0 003.621-5c.345-16.034 2.931-49.483 2.241-49.483-.344-.172-.517-.344-.689-.344zm-.69.862c-.172 8.793-3.448 34.655-3.621 48.793-.172 6.034-21.896 6.207-28.276 2.414a5.246 5.246 0 01-1.379-1.38c-.345-1.379-2.069-51.034-.862-51.207 5-.862 29.31 1.035 34.138 1.38z" fill="#1E1E1E"/><path d="M450.276 415.69c.172 8.103-2.759 34.827-2.931 49.31-.173 8.793-31.035 7.758-32.242 1.034-.517-2.758-2.069-51.034-.517-52.241 2.414-1.552 35.69 1.897 35.69 1.897z" fill="#fff"/><path d="M450.276 415.173c-7.414-.862-23.104-2.587-31.207-2.759-5 0-5.518.345-5.862 2.069-1.38 7.414 0 50.345.689 52.241 1.207 3.794 8.104 5 12.069 5.518 5.69.689 13.966.344 18.966-2.414a5.858 5.858 0 003.621-5c.344-16.035 2.931-49.483 2.241-49.483 0 0-.173-.172-.517-.172zm-.518 1.034c-.172 8.793-3.448 34.655-3.62 48.793-.173 6.035-21.897 6.207-28.276 2.414a5.243 5.243 0 01-1.379-1.379c-.345-1.38-2.069-51.035-.863-51.207 5-.862 29.138.862 34.138 1.379zm-140.517 22.931c3.276 9.31 22.414 9.483 31.724 6.207 1.552-.517 2.931-1.207 4.138-2.242.173-.172.173 0 .173-.862-1.035 0-.518-.172-1.552.345-5.517 2.759-28.966 4.138-33.621-3.793l-.689-.345-.173.69z" fill="#1E1E1E"/><path d="M413.896 426.207l-.345.69c3.276 8.965 22.242 9.827 32.069 6.034a12.235 12.235 0 003.794-2.241c.172-.173.172 0 .172-.862-1.035 0-.517-.173-1.379.345-5.345 2.758-27.587 3.965-33.104-2.931-.862-1.035-.172-.69-1.207-1.035zm-104.31 25.517c4.483 7.069 27.586 6.897 34.483 1.897.345-.345.172 0 .345-1.035-1.38-.172-.173-.172-2.242.517-3.965 1.207-14.827 2.069-23.793.69-2.414-.345-6.207-.862-7.931-2.759l-.69-.172-.172.862zm104.483-12.931l-.172.69c4.482 7.069 27.758 6.896 34.655 1.724.345-.173.172 0 .345-.862-1.38-.173-.173-.173-2.242.517-6.034 1.896-27.586 2.414-31.896-2.069h-.69zm-104.31 23.793l.172.69c7.759 4.655 17.069 6.207 25.862 4.138 2.414-.517 6.207-1.207 7.586-3.276v-.69c-1.207 0-.345 0-1.551.518-1.035.517-2.242.862-3.276.862-3.276.517-6.38.689-9.655.862-6.207 0-12.587-1.207-18.449-3.276l-.689.172zm104.31-12.241l.172.689c7.759 4.656 17.069 6.207 25.862 4.138 2.414-.517 6.207-1.207 7.587-3.275v-.69c-1.207 0-.345 0-1.552.517-1.035.517-2.241.862-3.276.862-3.276.517-6.379.69-9.655.862-6.207 0-12.586-1.207-18.448-3.276l-.69.173zm-104.138 22.069c.173 1.896 2.587 3.276 4.311 3.965 5.689 2.414 14.827 2.759 20.689 1.552 2.931-.69 6.897-2.069 8.276-4.655l-.172-.69-.69.173c-2.586 3.275-13.276 3.275-17.586 3.103-2.759-.172-12.586-1.035-13.793-3.448-.173-.173 0 0-.69-.518l-.345.518zm105.173-8.621c.172 1.897 2.586 3.276 4.31 3.966 5.69 2.413 14.828 2.758 20.69 1.551 2.931-.689 6.896-2.069 8.276-4.655l-.173-.689-.689.172c-2.587 3.276-13.276 3.276-17.587 3.103-2.758-.172-12.586-1.034-13.793-3.448-.172-.172 0 0-.689-.517l-.345.517z" fill="#1E1E1E"/><path d="M327 438.276s14.483-.345 18.103-6.207c8.621-14.138-25.689-22.586-34.482-8.276-1.38 2.414-1.035 5.517.689 7.759 3.449 5 10.173 6.034 15.69 6.724z" fill="#fff"/><path d="M327 438.966c4.138 0 8.276-.518 12.414-1.725 3.793-1.206 6.551-3.103 7.758-6.724 4.31-12.931-22.414-20.517-34.31-10.862-8.104 6.552-4.138 15.173 5.689 17.931 2.759.518 5.518 1.035 8.449 1.38zm-.518-1.207c-5.344-1.035-12.068-2.414-14.827-7.242-.69-1.207-1.035-2.586-.862-3.965.689-2.242 2.069-3.966 3.965-5.345 10.69-7.586 35.69-1.035 29.138 10.345-1.896 3.276-7.758 4.827-11.551 5.517-1.897.345-3.794.69-5.863.69z" fill="#1E1E1E"/><path d="M431.31 426.207s14.483-.345 18.104-6.207c8.62-14.138-25.69-22.586-34.483-8.276-1.379 2.414-1.035 5.517.69 7.759 3.448 4.827 10.344 5.862 15.689 6.724z" fill="#fff"/><path d="M431.31 426.724c4.138 0 8.276-.517 12.414-1.724 3.793-1.207 6.552-3.104 7.758-6.724 4.311-12.931-22.413-20.517-34.31-10.862-8.103 6.551-4.138 15.172 5.69 17.931 2.758.517 5.689 1.034 8.448 1.379zm-.345-1.207c-5.345-1.034-12.069-2.414-14.827-7.241-.69-1.207-1.035-2.586-.862-3.966.689-2.241 2.069-3.965 3.965-5.345 10.69-7.586 35.69-1.034 29.138 10.345-1.897 3.276-7.759 4.828-11.552 5.517-1.896.518-3.965.69-5.862.69z" fill="#1E1E1E"/><path d="M294.759 223.621c9.138 7.931 48.621 7.069 55.862 6.551 58.621-4.827 59.827-69.482 62.414-114.482 3.103-51.207-2.931-107.07-63.793-113.793-8.794-1.207-27.759-.173-36.552 1.379-29.655 4.655-37.242 26.207-40 31.896-15 30.345-15 61.38-12.242 94.656 2.932 37.758 4.828 68.276 34.311 93.793z" fill="#fff"/><path d="M353.897 230.517c46.379-5.689 56.034-48.793 59.31-95 2.931-40.69 6.724-93.448-25.345-120.172-12.069-10-28.448-15-43.965-15.345-8.966-.172-17.931.345-26.897 1.207-19.828 2.241-34.483 10.517-43.621 28.966-10.689 21.724-16.724 41.206-15.689 77.413.345 13.276 2.414 36.207 3.62 46.897 2.759 23.103 7.759 42.414 23.104 60 2.931 3.448 6.207 6.552 9.655 9.483 9.483 7.758 48.448 7.931 59.828 6.551zM340.448 2.587c4.483 0 8.793.172 13.104 1.034 52.758 8.448 61.379 56.551 58.448 110-.69 14.31-1.552 28.965-3.103 42.069-5.345 42.586-20.173 72.241-63.276 73.793-10.69.345-42.242.517-50.345-6.379-16.379-14.311-24.828-30.518-29.138-52.069-3.448-17.242-5.517-51.035-5.862-65-.69-33.794 5.345-54.483 16.207-75.69 5.689-11.724 16.379-20.517 28.965-24.138 9.655-2.931 26.035-3.62 35-3.62z" fill="#1E1E1E"/><path d="M333.034 274.827c-.862-26.896-1.206-20.172-.862-167.413l.862 167.413z" fill="#fff"/><path d="M330.276 116.207c-1.724 36.724-1.724 58.103-1.38 99.31-.172 17.414.518 34.828 2.242 52.069.689 8.448.345 6.897 1.034 8.276l.862.345.862-.345.345-1.034c0-22.242 1.897-73.621.862-123.449-.345-14.655-1.724-43.62-1.724-44.138l-.345-1.034-.862-.345c-1.724.862-1.379 0-1.896 10.345z" fill="#1E1E1E"/><path d="M332.173 181.207c4.138-7.759 28.448-42.759 36.896-53.793l-36.896 53.793z" fill="#fff"/><path d="M368.034 126.724c-6.034 6.035-11.379 12.586-16.379 19.483-7.414 10.517-15.69 22.414-20.517 34.31-.173.345 0 0-.173 1.207l.517.69h1.035c1.207-.862.517-.172 2.241-2.414 2.587-3.448 5-6.034 9.656-12.069 21.551-29.827 22.758-34.827 25.689-39.655l.173-1.034-.518-.863-.862-.172-.862.517z" fill="#1E1E1E"/><path d="M75.793 290.345c-.517.517-1.207.862-1.724 1.379-1.035.862-3.448 1.897-3.62 3.621 0 .345 1.034 1.379 1.206 1.551 1.207 1.38 2.241 2.931 3.276 4.483 1.552 2.069 3.103 4.138 4.655 6.035.517.689 1.552 2.069 2.414 2.241.517 0 2.069-1.724 2.241-1.896 1.207-1.035 2.414-1.897 3.62-2.932-3.965-5.172-2.93-3.62-12.068-14.482z" fill="#fff"/><path d="M75.276 290.172c-4.31 3.104-2.414 1.552-3.966 2.586-1.034.518-1.724 1.552-1.896 2.759.172.69.517 1.207.862 1.552 1.551 1.896 2.93 3.965 4.31 6.034.862 1.207 4.31 5.69 4.483 5.862.517.69 1.034 1.207 1.552 1.552 1.551 1.035 2.413.345 3.793-.862 1.551-1.552 1.034-.862 4.31-3.793.517-.345.517-1.035.345-1.552a106.316 106.316 0 00-8.276-9.31c-5-5.345-4.828-5.345-5.345-5l-.172.172zm10.862 14.483a28.166 28.166 0 00-3.449 2.931l-.69.69c-.689-.518-6.034-7.587-6.206-7.759-3.966-5.517-3.276-3.965-4.483-5.172.345-.518.69-1.035 1.207-1.38 1.035-.862 2.241-1.724 3.104-2.758 7.24 9.827 5.172 6.379 10.517 13.448zm-14.828-8.966c0-.172 0-.172 0 0z" fill="#1E1E1E"/><path d="M85.62 314.655c-2.758-6.724-7.413-12.414-12.24-17.931-.863-.862-3.104-4.828-4.483-4.828-2.931-.172-9.828 6.38-11.725 8.449-1.206 1.379-2.413 2.758-3.965 3.793-1.035.517-4.655-.345-5.862-.69-5.173-1.552-9.655-2.069-10.173 3.276-.172 1.897 2.07 3.965 8.794 4.483.517 0 0 1.207-.173 1.551-1.38 3.449-3.276 6.552-4.828 9.828-2.413 5.172-4.482 10.345-6.896 15.517-1.035 2.242-3.62 7.759-1.897 10.173 2.07 2.758 6.38-1.207 7.587-2.759 4.827-6.207 8.448-13.793 12.241-20.69.172-.172-.517.863-.862 1.552-.69 1.035-1.207 2.242-1.724 3.448-1.38 2.759-6.207 8.276-3.966 11.552 3.276 4.828 8.966-2.586 10.517-5.172.518-1.207 1.207-2.242 2.07-3.276l-.345.862c-.518 1.034-1.035 2.069-1.38 3.276-.345 1.724.862 3.62 2.587 3.965 1.551.69 2.93-.689 3.793-1.896 2.241-2.931 3.965-6.38 5.344-9.828.345-1.034.345-2.931 1.207-3.621 3.793-3.103 16.38-11.034 16.38-11.034z" fill="#fff"/><path d="M37 303.276c-.69 1.034-1.035 2.241-1.035 3.621 0 3.793 5 5 8.621 5.517-1.207 3.276-3.276 6.552-5 10-1.896 4.138-3.62 8.103-5.517 12.414-1.552 3.448-3.793 7.586-3.966 11.206 0 4.311 3.449 6.552 8.104 2.932 2.414-2.069 4.31-4.483 5.862-7.242 1.724 3.448 6.034 4.31 11.207-2.414.862 1.724 2.414 2.759 4.138 2.931 1.896-.172 3.62-1.379 4.483-3.103 2.069-2.931 3.62-6.207 4.827-9.655.173-.862.345-2.414.69-2.931.172-.173 2.414-1.724 2.758-1.897 13.449-9.31 14.138-8.793 13.794-9.655-3.621-9.138-10.173-15.517-13.449-20.172-1.034-1.552-2.413-3.449-4.138-3.276-2.413.172-5.517 2.758-7.414 4.31-2.24 1.724-4.31 3.621-6.206 5.862-.518.517-1.897 1.897-2.587 2.069-3.448-.345-11.724-5.517-15.172-.517zm13.448 37.241c-1.207.862-2.586 1.552-3.62.345-.345-.345-.69-.862-.69-1.379 0-.862 0-1.552.517-2.414 2.07-3.621 5.862-10.69 6.207-11.207.345-.345.517-.862.517-1.379-.172-.173.173-.517-.69-1.035-.517-.345-1.034-.172-1.551 0-.345.345-.172.173-1.035 1.724-.69 1.207.518-.862-2.413 4.311-1.38 2.758-1.207 1.896-2.414 4.138a36.614 36.614 0 01-3.62 6.207c-1.035 1.724-2.242 3.448-3.621 5-.863 1.034-2.07 1.896-3.276 2.586-.345.172-.862.172-1.207.172-.517-.172-.69-.862-.862-1.379.172-2.414.69-4.655 1.896-6.897 3.276-7.241 4.655-10.862 7.07-16.034 1.206-2.586 5.172-9.828 5.516-11.724.173-.518 0-.862-.172-1.38-.69-.862-1.035-.517-3.965-1.034-1.38-.172-2.76-.69-3.794-1.379-1.206-.69-1.034-1.38-.862-1.897.862-5 7.07-1.896 11.552-1.034 5 .862 4.655-1.035 10-6.207 1.724-1.724 5.862-5.345 8.276-6.035.172 0 .517-.172.69 0 1.034.345 2.93 3.104 3.62 4.138 1.38 1.897 8.793 8.966 12.587 17.586-1.207.69-15.69 9.483-16.552 10.518-1.035 1.034-.862 2.758-1.207 3.793-1.207 3.276-3.104 6.551-5.173 9.31-.69.862-1.724 1.897-2.758 1.552-1.035-.345-2.07-1.38-1.897-2.414.173-1.035 1.207-2.586 1.897-4.31.172-.69-.173-1.207-.69-1.38-.517-.172-.862 0-1.207.345-1.724 1.552-3.103 5.862-7.069 8.793z" fill="#1E1E1E"/><path d="M331.827 194.655c-6.551-8.103-28.275-36.034-34.31-45.69l34.31 45.69z" fill="#fff"/><path d="M296.828 147.931l-.518.862c0 .862.173 1.724.69 2.414 2.414 5.172 5.172 10 8.448 14.655 5 7.241 10.518 14.138 16.207 20.69 1.724 1.724 4.138 4.31 4.828 4.827 5.172 5 3.965 3.966 5.172 4.483l.862-.172.517-.862c-.172-1.207-.172-.862-.517-1.552-4.483-8.104-9.655-15.862-15.517-23.104-11.552-15.344-10.172-12.586-17.759-21.206-1.034-1.207-.517-.69-1.724-1.552l-.689.517zM152 103.103c-1.379.173-2.586 1.207-3.965 1.38-4.656 1.034-9.138 1.207-13.621-.862-1.379-.862-2.586-2.069-3.448-3.276-5.862-6.552-6.035-16.552.689-22.242 9.655-8.275 20.518 0 20.518 0C157.69 75 161.828 71.897 167 71.034c5.517-1.207 11.379-1.379 16.897-.69 4.482.863 8.62 2.76 12.241 5.518 6.724 5.69 9.483 17.069 9.828 25.517.344 4.828-.862 9.483-3.104 13.793-.345.69-1.552 3.621-1.379 3.104.69-3.966-9.31-7.069-11.897-.69 0 .173-3.276-17.758-3.276-17.758-2.241 2.241-13.965 11.724-34.31 3.275z" fill="#1E1E1E"/><path d="M162.517 70.862c-2.758 1.207-5.517 2.586-8.103 4.31-2.759 1.552-2.414 1.38-2.586 1.38-17.414-11.207-33.621 7.758-23.104 22.586.862 1.034 1.724 2.241 2.759 3.103.689.863 1.551 1.38 2.414 1.897 3.62 1.724 7.758 2.241 11.551 1.379 1.552-.172 2.931-.517 4.311-1.207 2.413-1.034 1.896-.862 3.103-.344 13.793 5.517 25.345 3.448 32.586-2.242 2.069 11.897 2.759 15.862 3.104 16.38.172.344.689.517 1.034.517 1.207-.173.862-.862 1.724-2.069.69-.862 1.725-1.38 2.931-1.552 2.069-.345 4.138.345 5.518 1.724.344.345.344.69.344 1.035-.172.689.345 1.379 1.035 1.551.69.173 1.379-.172 1.552-.862.344-.689.862-2.069 1.207-2.931 1.034-1.896 1.896-3.965 2.413-6.207 1.725-6.551.69-14.827-1.379-21.379-3.276-10.345-8.965-16.552-19.828-18.965-7.413-1.035-15.172-.518-22.586 1.896zm23.449 28.104c-.518.172-8.104 8.793-23.621 6.551-3.621-.689-7.069-1.551-10.517-2.931-.862.173-1.725.518-2.587.862a23.714 23.714 0 01-8.448 1.035 15.557 15.557 0 01-5.517-1.552c-1.379-.862-2.586-1.896-3.621-3.276-11.552-13.103 2.586-31.207 18.448-21.552 1.38.863 1.552 1.207 2.414 1.035.862-.345 6.724-3.966 8.104-4.655 3.448-1.724 5.689-2.414 11.896-3.104a37.595 37.595 0 0112.414.518c3.793.862 7.414 2.586 10.517 5.172 7.759 6.897 10.862 23.103 8.449 32.069-.518 2.069-1.38 3.966-2.242 5.69-3.103-2.931-7.931-3.104-11.379-.345-.69-3.448-2.931-14.828-3.104-15.173-.172-.344-.689-.517-1.206-.344z" fill="#1E1E1E"/><path d="M189.931 117.069c-.172.172-.172.345-.172.517 0 .173-3.276-17.758-3.276-17.758-2.242 2.241-13.966 11.724-34.31 3.275-1.38.173-2.587 1.207-3.966 1.38-5 1.034-4.483.345-4.655 1.034-.345 3.449-.173 7.069.172 10.518 0 0-6.551-.345-7.414 3.965-.689 3.793.518 7.759 3.276 10.345.862.862 2.069.862 2.931 1.379v2.069c.173 6.379 3.793 17.931 8.793 22.586 2.759 2.587 7.242 3.621 10.863 4.138 11.034 1.897 22.931-1.207 28.103-12.069 1.552-3.793 2.414-7.931 2.586-12.069 0-2.069.345-4.31.862-6.379.345-.69 3.104-.517 3.966-.69 10.172-3.448 4.138-19.482-3.276-15.689-1.897.862-3.448 2.069-4.483 3.448 0 .172 0 0 0 0z" fill="#fff"/><path d="M186.138 99.138c-.517.172-.345.172-1.379 1.034-6.38 5.173-16.38 7.414-28.621 3.449-4.138-1.38-3.793-1.724-4.655-1.552-2.414.517-1.724 1.207-6.724 1.897-1.897.172-1.897 0-2.414.517-1.207 1.379-.69 8.793-.517 10.517-2.242 0-4.483 1.034-6.207 2.586-2.242 2.931-1.552 10.517 2.586 13.966.689.517 1.552.862 2.414 1.207v1.034c-.173 5.345 3.448 17.931 9.138 23.621 7.586 7.241 35.172 9.483 41.896-10a51.883 51.883 0 002.069-12.586c0-1.38.172-2.587.517-3.793 1.552-.518 2.931.344 5.69-1.552 7.069-5 2.586-17.414-4.138-16.552-.69.172-1.379.345-1.897.69-1.724.517-3.103 1.551-4.137 2.931-3.104-17.414-2.587-16.552-3.276-17.07 0-.344-.173-.516-.345-.344zm3.103 18.793c.173.172.518.172.862 0 0-.172.173-.172.173-.345 1.034-1.379 2.414-2.414 4.138-2.931.517-.172.517-.345 1.379-.517 5.69-1.379 9.655 9.655 3.448 13.793-2.069 1.207-2.413.862-4.482 1.035-1.552.172-1.725.689-2.069 1.724-.862 2.758-.518 8.965-2.414 15.172-2.242 6.897-8.104 12.069-15.345 13.448-9.138 2.069-19.31-.689-22.586-3.448-3.966-3.621-6.38-10.345-7.586-15.517-2.242-8.621.689-8.793-2.759-10-.862-.173-1.552-.517-2.069-1.207-2.759-2.931-3.103-8.448-1.724-10 1.034-.862 2.241-1.379 3.621-1.552 1.896-.172 2.068.173 2.758-.517.517-.517.345-.862.345-1.552-.345-2.931-.517-6.034-.345-9.138 2.586-.172 5-.862 7.414-2.069.172 0 0 0 .69.173 14.137 5.517 25.862 2.931 33.275-3.104 2.587 13.966 3.104 16.207 3.276 16.552z" fill="#1E1E1E"/><path d="M143.379 105.345c-3.448.172-7.931-.517-10.172-2.586-.69 5.345.172 10.862 2.241 15.689.172.518.345 1.207.69 1.725V120c.862-4.31 7.413-3.965 7.413-3.965-.344-2.069-.862-8.621-.172-10.69z" fill="#1E1E1E"/><path d="M133.034 101.552c-1.034.172-1.034.862-1.207 2.069a31.692 31.692 0 002.414 15.517c.69 1.552.517 1.724 1.035 2.069a1.565 1.565 0 001.724 0c.69-.69.345-1.035.862-1.897 1.379-2.069 5.69-2.069 6.034-2.069.518-.172.862-.689.862-1.206-.172-1.552-.517-3.104-.689-5.518a13.93 13.93 0 010-5.345c0-.172-.345-.344-.517-.344-2.931 0-6.035-.69-8.621-2.242-1.035-.689-1.035-1.034-1.897-1.034zm9.656 4.31c-.518 2.931-.518 6.035-.345 9.138a9.761 9.761 0 00-3.104.517c-1.034.345-2.069.862-2.758 1.552-1.552-3.966-2.242-8.276-2.242-12.414 2.586 1.207 5.517 1.552 8.449 1.207zM194.242 130c-.173 0-.345.172-.518.345-.517 2.069-.862 4.138-.862 6.379-.172 4.138-1.207 8.104-2.586 12.069-5.172 10.862-17.069 13.966-28.103 12.069-3.621-.517-8.104-1.552-10.862-4.138-5.345-5.172-9.138-17.931-8.793-23.103-1.207.172-2.587.345-3.794.689C76.828 145 46.656 200.517 59.587 270.172c2.93 16.207 10.69 29.828 20.69 36.207 15.344 10 30.861 13.449 48.447 14.828 34.138 2.586 71.38 6.034 105.345-1.035 8.621-1.724 17.759-3.793 25.69-7.586 3.793-1.724 31.207-24.655 35.69-39.31 14.31-47.242-9.138-95.345-47.587-125.69-14.827-11.724-33.965-16.552-53.62-17.586z" fill="#1E1E1E"/><path d="M192.862 131.034c-.345 1.725-.517 3.276-.517 5-.172 1.207-.517 5-1.207 7.587-3.276 14.655-17.586 19.31-32.586 15.689-2.414-.517-4.828-1.551-6.724-3.103-4.655-4.138-7.759-13.621-8.449-19.31-.517-3.621 0-3.104-.344-3.794-.173-.344-.518-.517-1.035-.517-6.896 1.035-13.793 2.586-20.517 4.828-48.966 16.379-70.173 62.931-65.862 115.172 1.207 15.862 3.965 31.379 12.93 44.138 4.484 6.379 10 11.724 24.139 17.759 7.758 3.276 16.034 5.517 24.483 6.724 10.172 1.552 40.344 3.448 50.689 3.965 14.311.69 28.621.69 42.931-.517 14.138-1.207 34.483-4.655 47.069-10 2.931-1.379 4.138-2.069 8.621-5.69 9.827-8.103 26.207-23.62 29.827-35.862 9.138-31.206 2.414-63.103-15.862-91.034-11.551-17.414-28.103-33.104-39.655-40-11.207-6.379-23.448-10.172-36.207-11.552-2.586-.345-10.172-1.034-10.862-.862-.517.173-.517.517-.862 1.379zm1.724-.517c16.035 1.035 32.069 4.483 45.862 12.759 8.449 5.172 18.449 14.483 25.173 22.069 23.621 26.379 37.586 60.862 31.207 96.207a81.614 81.614 0 01-3.104 12.413c-.345 1.035-.862 1.897-1.207 2.759-7.069 13.448-28.62 32.069-33.275 34.483-5 2.241-10.345 4.138-15.863 5.345-25.862 6.379-48.965 7.069-76.206 5.862-14.656-.69-39.483-2.759-43.794-3.104-15.172-1.724-28.103-5.172-41.034-13.103-6.207-3.793-11.552-9.138-16.207-19.138-3.276-7.069-5.345-14.655-6.38-22.414-5.861-38.793.69-79.483 29.828-106.207 15.173-13.793 32.242-20.517 51.897-23.793.517 6.379 2.586 12.586 5.69 18.104 3.103 5.172 6.034 7.069 12.413 8.448 10.862 2.241 22.069.517 28.793-7.931 2.587-3.448 4.311-7.586 4.656-11.897 1.034-7.069.517-8.103 1.207-10.345 0-.517-.173-.517.344-.517z" fill="#1E1E1E"/><path d="M129.414 136.207c-55.69 14.31-82.241 67.758-70 133.965 2.931 16.207 10.69 29.828 20.69 36.207 15.344 10 30.862 13.448 48.448 14.828 7.241.517 14.483 1.207 21.896 1.724 1.725-12.069 2.587-24.138 2.759-36.379-.172-33.621-3.965-66.897-6.724-100.173l-1.035-10.862c-1.034-1.379-2.069-2.586-2.931-3.621-8.793-9.31-11.724-23.103-13.103-35.689z" fill="#fff"/><path d="M129.241 135.69c-54.827 13.793-78.965 63.448-73.103 120.517 1.724 17.586 5.69 36.034 19.138 48.103 5 4.483 13.793 8.966 20.172 11.38 16.552 6.379 31.552 6.896 49.483 8.103 6.207.517 5.69.517 6.379.173.69-.518.517-.518 1.035-4.311 2.069-18.276 3.62-32.414.689-73.965-1.207-16.035-2.758-30.69-4.31-46.897-2.414-25.69-2.069-23.276-2.759-24.138-1.034-1.379-1.724-2.069-2.413-2.931a28.039 28.039 0 01-2.931-3.448c-9.138-12.414-10-31.207-10.345-32.069-.518-.517-.862-.69-1.035-.517zm5 24.655c3.448 8.103 6.552 10.862 9.655 14.655.862 1.034.69.69.69 1.207-.172 0 4.655 50.862 6.379 78.965 1.724 32.069.862 43.276-1.034 60.69-.69 6.207-.517 5.517-.69 5.517.173-.172-26.724-1.034-42.241-4.827-10.345-2.586-24.31-8.276-31.724-16.035-8.621-8.793-12.759-21.034-14.828-33.276-10.172-60 11.38-114.827 68.793-130.344.345 7.931 2.069 15.862 5 23.448z" fill="#1E1E1E"/><path d="M207.69 131.379c.172 4.483.172 8.966-.173 13.449-.517 11.034-5.172 24.482-13.103 33.276 0 .517 0 1.206-.172 1.724-1.38 32.241-2.587 65.172-.518 97.413.862 12.414 1.035 33.966 7.242 46.725 16.551-.69 33.103-3.276 48.965-7.931 4.138-1.725 8.448-3.621 12.586-5.69 8.276-6.207 28.793-24.655 32.587-37.241 14.31-47.242-9.138-95.345-47.587-125.69-11.207-8.793-25.172-13.793-39.827-16.035z" fill="#fff"/><path d="M207.517 130.862c-.345 0-.517.345-.517.517.689 0 .862 0 0 0 .344 6.38 0 12.931-.862 19.311-1.552 9.655-5.69 18.793-11.897 26.207-1.034 1.034-.69.172-1.034 6.034-2.759 59.655-1.897 75.345 0 106.724.344 8.621 1.551 17.069 3.275 25.517.863 3.449 1.897 6.552 3.449 9.828.689.69 1.207.517 2.241.517 12.414-.517 24.828-2.241 37.069-5 7.069-1.207 13.966-3.62 20.517-7.069 4.138-1.896 3.621-1.724 5.173-2.931 9.827-7.758 27.069-23.965 31.207-35.862 1.724-5.69 3.103-11.379 3.793-17.241 4.655-36.897-11.552-71.724-37.586-97.931-16.38-16.38-27.932-22.242-42.759-26.035a71.585 71.585 0 00-12.069-2.586zm.69 1.207c22.931 3.965 34.482 11.552 47.586 23.448 32.414 30.173 50.862 73.449 38.448 116.207-1.034 3.621-2.759 7.069-5 10.173-6.379 8.965-17.069 19.482-25.517 26.034-1.724 1.379-1.035 1.207-7.414 4.138-3.965 2.069-8.103 3.621-12.586 4.483-13.621 3.448-27.759 5.517-41.724 6.034-3.104-6.724-4.483-15.689-5.345-23.103-.862-7.414-2.414-33.793-2.759-52.759-.172-18.448.173-35 .69-53.276.517-16.551.517-15 .69-15.345 5-5.862 8.62-12.758 10.517-20.172 1.551-5.517 2.241-10.172 2.414-21.034.172-5.173-.173-4.828 0-4.828z" fill="#1E1E1E"/><path d="M212 336.552c50-14.311 43.621-10.862 57.242-16.207 1.034-.345 3.275-.69 3.965-1.552.69-1.207-.172-2.586-.345-3.793-.345-1.724-.172-4.31-.862-6.035-.517-1.034-3.448.173-4.138.345-4.31.862-8.62 1.552-12.931 2.587-17.069 4.31-34.655 6.379-51.552 10.862-.344.172 0 1.206.173 1.379.69 1.552 1.379 2.931 2.241 4.31 1.035 2.069 1.897 4.311 3.104 6.207.172.345.689 1.724 1.207 1.897.344.689 1.207.172 1.896 0z" fill="#fff"/><path d="M270.793 307.069c-1.207.173-2.586.345-3.793.862-18.621 3.448-10.345 2.586-31.034 6.552-4.483.862-25.69 4.827-33.104 7.414-2.241 1.034.862 5.172 1.897 7.069.862 1.724 1.724 3.448 2.758 5.344.518 1.035.518.863.518 1.035.689 1.207.862 2.241 2.241 2.241.69 0-.69.173 17.241-4.31 34.138-8.621 31.035-7.586 36.207-9.31 3.621-1.207 6.035-2.242 6.552-2.414.517-.173 1.207-.345 2.069-.517 4.483-1.552 2.241-5.173 2.069-6.725-.69-3.103 0-7.241-3.621-7.241zm.518 7.931c.344 1.035.517 1.897.689 2.931a10.984 10.984 0 01-3.103 1.035c-14.828 5.862-7.586 1.724-56.897 17.069-.517.172-1.207.344-1.724.344-.345-.344-.517-1.034-1.034-2.069-1.207-2.413-1.897-4.482-3.104-6.724-.69-1.207-1.379-2.413-1.724-3.62 8.793-2.069 20.345-3.966 30-5.69 16.724-3.103 19.138-4.138 24.655-5.345 2.069-.345 9.655-1.896 9.655-1.896.862-.173 1.552-.518 2.414-.69 0 1.034-.172 3.103.173 4.655zm-67.242 8.276c0-.172 0-.172 0 0z" fill="#1E1E1E"/><path d="M214.069 344.31c-.172-3.965-2.586-8.793-4.138-12.414-1.552-3.793-3.276-7.413-5-11.207-.517-1.034-1.379-3.793-2.414-4.655-1.724-1.207-6.379.862-8.103 1.724-16.897 7.931-30.69 15.518-46.552 24.656 21.207 6.551 43.448 6.034 66.207 1.896z" fill="#fff"/><path d="M196.483 315.69c-4.483 1.724-26.035 12.586-37.759 19.138-12.586 7.069-11.724 6.551-12.069 7.069-.172.517 0 1.207.518 1.551 3.103 1.035 6.379 1.897 9.655 2.587 15.862 3.275 31.207 2.931 47.069.517.517-.173 10-1.552 10.345-1.897.172-.172.172-.172.172-.345 0-1.379-.345-2.931-.69-4.31-1.379-4.827-7.586-18.965-8.103-20.172-1.379-4.483-2.069-6.724-9.138-4.138zm5.517 1.207c.862 1.207 1.552 2.413 1.897 3.793 2.069 5 8.793 17.758 9.482 23.103-6.206.862-10.344 1.552-18.103 2.069-14.828 1.207-29.655-.172-43.965-3.965 9.482-5.345 16.724-9.483 25.517-13.966 10.862-5.345 22.931-12.069 25.172-11.034z" fill="#1E1E1E"/><path d="M300.448 494.483s14.483-.345 18.104-6.207c1.724-2.931 2.069-8.793 1.207-11.552-.69-2.586-2.069-2.241-5-3.621-8.793-4.138-26.207 12.069-31.035 3.104-.862-1.724-.69 4.827-.69 5.517-.344 2.069.345 4.31 1.725 5.862 3.275 5 10.172 6.035 15.689 6.897z" fill="#fff"/><path d="M305.276 472.241c-4.138 1.207-8.966 3.621-12.759 4.656-7.241 2.241-7.241-1.035-8.276-1.897-.517-.517-1.552-.345-1.896.172l-.173.173c-.69 1.207-.345 4.483-.517 6.724-.173 2.069.517 4.138 1.896 5.862 3.794 5.172 10.518 6.207 16.897 6.897 5 0 12.414-.862 16.552-3.621 1.551-1.035 2.586-2.414 3.276-4.138.862-2.414 1.206-5 1.034-7.586-.172-5-1.552-5.862-3.965-6.724-2.931-1.035-4.828-2.759-12.069-.518zm-18.966 15.862c-1.379-1.379-2.069-3.275-2.241-5.172 0-.69.172-.69.172-1.552v-2.413c6.552 5.344 20.517-6.725 28.621-5 1.207.344 2.586.862 3.793 1.379l1.034.517c1.38 1.207 1.38 8.104 0 11.207-2.069 4.828-12.241 6.552-17.413 6.724-4.828-.862-10.69-1.896-13.966-5.69z" fill="#1E1E1E"/><path d="M429.759 489.138s14.482-.345 18.103-6.207c1.724-2.931 2.069-8.793 1.207-11.552-.69-2.586-2.069-2.241-5-3.62-8.793-4.138-26.207 12.069-31.035 3.103-.862-1.724-.689 4.828-.689 5.517-.345 2.069.345 4.311 1.724 5.862 3.448 5 10.345 6.035 15.69 6.897z" fill="#fff"/><path d="M434.759 466.897c-4.138 1.207-8.966 3.62-12.759 4.655-7.241 2.241-7.241-1.035-8.276-1.897-.517-.517-1.551-.345-1.896.173l-.173.172c-.689 1.207-.345 4.483-.517 6.724-.172 2.069.517 4.138 1.897 5.862 3.793 5.173 10.517 6.207 16.896 6.897 5 0 12.414-.862 16.552-3.621 1.552-1.034 2.586-2.414 3.276-4.138.862-2.414 1.207-5 1.034-7.586-.172-5-1.551-5.862-3.965-6.724-2.931-1.035-5-2.759-12.069-.517zm-19.138 15.862c-1.379-1.38-2.069-3.276-2.242-5.173 0-.689.173-.689.173-1.551v-2.414c6.552 5.345 20.517-6.724 28.621-5 1.206.345 2.586.862 3.793 1.379l1.034.517c1.379 1.207 1.379 8.104 0 11.207-2.069 4.828-12.241 6.552-17.414 6.724-4.827-.689-10.517-1.896-13.965-5.689z" fill="#1E1E1E"/><path d="M177.172 499.483s14.483-.345 18.104-6.207c1.724-2.931 2.069-8.793 1.207-11.552-.69-2.586-2.069-2.241-5-3.621-8.793-4.138-26.207 12.069-31.035 3.104-.862-1.724-.689 4.827-.689 5.517-.345 2.069.344 4.31 1.724 5.862 3.448 5 10.172 6.035 15.689 6.897z" fill="#fff"/><path d="M182 477.241c-4.138 1.207-8.966 3.621-12.759 4.656-7.241 2.241-7.241-1.035-8.276-1.897-.517-.517-1.552-.345-1.896.172l-.173.173c-.689 1.207-.345 4.483-.517 6.724-.172 2.069.517 4.138 1.897 5.862 3.793 5.172 10.517 6.207 16.896 6.897 5 0 12.414-.862 16.552-3.621 1.552-1.035 2.586-2.414 3.276-4.138.862-2.414 1.207-5 1.034-7.586-.172-5-1.552-5.862-3.965-6.724-2.931-1.035-4.828-2.759-12.069-.518zm-18.966 15.862c-1.379-1.379-2.069-3.275-2.241-5.172 0-.69.172-.69.172-1.552v-2.413c6.552 5.344 20.517-6.725 28.621-5 1.207.344 2.586.862 3.793 1.379l1.034.517c1.38 1.207 1.38 8.104 0 11.207-2.068 4.828-12.241 6.552-17.413 6.724-4.828-.862-10.69-1.896-13.966-5.69z" fill="#1E1E1E"/><path d="M171.138 218.276c1.724 3.965 4.483 7.414 8.103 9.655a25.51 25.51 0 00-8.103 10.517c-1.38-4.482-4.483-8.448-8.448-10.862 3.793-2.241 6.724-5.517 8.448-9.31z" fill="#fff"/><path d="M169.069 220.517a23.522 23.522 0 01-4.138 4.138c-2.759 2.069-3.276 1.552-3.449 2.759.173 1.379 1.38.862 4.483 4.138 1.035 1.207 1.897 2.414 2.759 3.793 1.551 3.103 1.034 3.448 2.069 4.138.517.172 1.207 0 1.551-.345.345-.345.173-.345.69-1.552 1.724-3.62 4.31-6.724 7.414-9.31 1.207-2.586-3.966-1.379-8.621-10.517a.37.37 0 00-.345-.345c-.862.172-.689.862-2.413 3.103zm8.275 7.242c-2.413 2.069-4.482 4.482-6.034 7.069-1.379-3.104-3.621-5.69-6.379-7.587 2.758-2.069 4.827-4.655 6.207-7.758 1.379 3.448 3.448 6.207 6.206 8.276z" fill="#1E1E1E"/><path d="M28.207 198.965c1.724 3.966 4.483 7.414 8.104 9.655a25.509 25.509 0 00-8.104 10.518c-1.38-4.483-4.483-8.449-8.448-10.862 3.62-2.069 6.724-5.345 8.448-9.311z" fill="#fff"/><path d="M26.138 201.379A23.494 23.494 0 0122 205.517c-2.759 2.069-3.276 1.552-3.448 2.759.172 1.379 1.38.862 4.483 4.138 1.034 1.207 1.896 2.414 2.758 3.793 1.552 3.103 1.035 3.448 2.07 4.138.516.172 1.206 0 1.55-.345.346-.345.173-.345.69-1.552 1.725-3.62 4.31-6.724 7.414-9.31 1.207-2.586-3.965-1.379-8.62-10.517a.37.37 0 00-.345-.345c-1.035.172-.69.69-2.414 3.103zm8.276 7.242c-2.414 2.069-4.483 4.482-6.035 7.069C27 212.586 24.76 210 22 208.103c2.759-2.069 4.828-4.655 6.207-7.758 1.207 3.276 3.448 6.207 6.207 8.276z" fill="#1E1E1E"/><path d="M110.966 179.31c1.724 3.966 4.483 7.414 8.103 9.655a25.513 25.513 0 00-8.103 10.518c-1.38-4.483-4.483-8.449-8.448-10.862 3.793-2.069 6.724-5.345 8.448-9.311z" fill="#fff"/><path d="M110.966 178.793c-.862 0-1.552 3.966-7.242 7.759-1.896 1.207-2.241 1.034-2.241 2.069.172 1.034.517.862 2.758 2.586a17.272 17.272 0 014.656 6.034c1.207 2.759.862 2.932 1.724 3.449 2.758.862.689-3.104 8.448-10 1.035-.862.862-.69 1.207-1.035 1.207-2.586-3.966-1.379-8.621-10.517-.517.172-.689.345 0 0-.172-.172-.517-.345-.689-.345zm6.206 10.173c-2.413 2.069-4.482 4.482-6.034 7.069-1.379-3.104-3.621-5.69-6.379-7.587 2.758-2.069 4.827-4.655 6.207-7.758 1.379 3.276 3.448 6.207 6.206 8.276z" fill="#1E1E1E"/><path d="M396.138 412.414c.173 8.103-2.759 34.827-2.931 49.31-.172 8.793-31.034 7.759-32.241 1.035-.518-2.759-2.069-51.035-.518-52.242 2.587-1.379 35.69 1.897 35.69 1.897z" fill="#fff"/><path d="M396.31 411.896c-7.414-.862-23.103-2.586-31.207-2.758-5 0-5.517.345-5.862 2.069-1.379 7.413 0 50.344.69 52.241 1.207 3.793 8.103 5 12.069 5.517 5.69.69 13.965.345 18.965-2.414a5.855 5.855 0 003.621-5c.345-16.034 2.931-49.482 2.242-49.482 0 .172-.345-.173-.518-.173zm-.689 1.035c-.173 8.793-3.449 34.655-3.621 48.793-.172 6.034-21.897 6.207-28.276 2.414a5.246 5.246 0 01-1.379-1.38c-.345-1.379-2.069-51.034-.862-51.207 5-.862 29.31 1.035 34.138 1.38z" fill="#1E1E1E"/><path d="M359.586 423.621c3.276 9.31 22.414 9.482 31.724 6.206 1.552-.517 2.931-1.206 4.138-2.241.173-.172.173 0 .173-.862-1.035 0-.518-.172-1.552.345-5.517 2.758-28.966 4.138-33.621-3.793l-.69-.345-.172.69zm.345 12.758c4.483 7.069 27.586 6.897 34.483 1.897.344-.345.172 0 .344-1.035-1.379-.172-.172-.172-2.241.518-3.965 1.207-14.827 2.069-23.793.689-2.414-.344-6.207-.862-7.931-2.758l-.69-.173-.172.862zm.173 10.863l.172.689c7.759 4.655 17.069 6.207 25.862 4.138 2.414-.517 6.207-1.207 7.586-3.276v-.689c-1.207 0-.345 0-1.551.517-1.035.517-2.242.862-3.276.862-3.276.517-6.38.69-9.655.862-6.207 0-12.587-1.207-18.449-3.276l-.689.173zm.172 9.827c.172 1.897 2.586 3.276 4.31 3.966 5.69 2.413 14.828 2.758 20.69 1.551 2.931-.689 6.896-2.069 8.275-4.655l-.172-.69-.69.173c-2.586 3.276-13.275 3.276-17.586 3.103-2.758-.172-12.586-1.034-13.793-3.448-.172-.172 0 0-.69-.517l-.344.517z" fill="#1E1E1E"/><path d="M164.931 119.828c0 3.275-1.207 7.069-1.724 10.344-.173.863-1.035 2.414-.69 3.276.69 1.38 2.414 1.897 3.793 2.242.862.172 1.724.345 2.586.172" fill="#fff"/><path d="M164.931 118.448l-.862.518-.345 1.034c0 4.138-1.034 6.897-1.379 10.173-.173.862-.862 2.413-.518 3.62.69 2.242 5 3.276 7.414 2.931l.517-.517c-1.034-.862-.172-.345-1.724-.517-1.034-.173-1.896-.517-2.758-1.035-1.38-.689-1.552-1.551-1.38-1.379 0-.517.518-1.552.862-3.103.863-3.104 1.552-6.38 1.897-9.656 0-.517 0-.172-.345-1.206l-1.379-.863z" fill="#1E1E1E"/><path d="M176.483 115.345a22.49 22.49 0 018.103 2.069l-8.103-2.069z" fill="#fff"/><path d="M175.621 114.31l-.345.862.345 1.035c1.207.517.689.345 1.552.517 1.896 0 3.793.345 5.517.69 2.241.517 1.207.689 2.414.345-.345-.862 0-.69-1.035-1.207-2.069-1.207-4.31-2.069-6.724-2.414-1.035-.173-.69-.172-1.724.172z" fill="#1E1E1E"/><path d="M158.897 114.655c-1.035-.345-2.069-.517-3.104-.172-1.896.345-3.621.517-5.345 1.034" fill="#fff"/><path d="M153.897 113.793c-1.207.345-2.414.69-3.621 1.207l-.345.69.69.345c1.207-.173 2.241-.173 3.621-.173 1.724-.172 3.448-.517 3.793-.172l1.034.172.862-.517.173-1.034-.518-.862c-1.551-.863-3.793-.173-5.689.344z" fill="#1E1E1E"/><path d="M179.413 121.552c.173 1.034.173 2.069 0 3.276v-3.276z" fill="#fff"/><path d="M179.586 126.034c.69 0 1.207-.517 1.379-1.206.173-1.207.173-2.414-.172-3.621-.173-.69-.862-1.207-1.552-1.035-.69.173-1.207.862-1.034 1.552a7.44 7.44 0 010 2.759c-.173.689.344 1.379 1.034 1.551h.345z" fill="#1E1E1E"/><path d="M156.138 120.69c.172 1.034.172 2.241-.172 3.276l.172-3.276z" fill="#fff"/><path d="M156.138 125.345c.689 0 1.207-.517 1.379-1.207.173-1.207.173-2.586.173-3.793-.173-.69-.863-1.207-1.552-1.207-.69.172-1.207.862-1.207 1.552v.172c.172.862 0 1.897-.173 2.759-.172.689.345 1.379 1.035 1.551.172.173.172.173.345.173z" fill="#1E1E1E"/><path d="M170.621 147.586c-3.449.69-7.069-.862-8.966-3.793l8.966 3.793z" fill="#fff"/><path d="M161.482 143.448l-.172.69c1.724 3.448 5.517 5.517 9.31 4.828.518 0 .173 0 1.207-.518l.173-1.034-.518-.862c-1.551-.345-.344-.172-2.241 0-2.069.172-4.31-.517-5.862-1.897-1.724-1.207-.69-1.034-1.897-1.207zM250.793 150v.69c35.69 30.689 56.724 76.724 43.276 121.896-3.276 10.69-18.448 25.345-26.724 32.414-8.276-6.724-6.379-4.655-21.379-14.828l.862-2.241c1.034-2.931 2.414-5.862 3.793-8.621 3.448-6.551 7.241-10.517 8.276-12.758 1.034-2.069 1.896-4.311 2.758-6.552 0-.172.173-.345 0-.517-.172-.69-.172-.518-2.413-2.586-2.069-1.897-3.966-3.966-5.518-6.38-4.655-6.551-14.827-25.172-18.448-32.241-4.31-8.621-9.138-19.31-10.862-28.621-1.034-5.689-.172-4.31-1.207-5.172-.517.689-.517.345-.345 1.896 1.207 12.759 8.793 28.793 14.655 40.345 2.414 4.828 9.656 17.931 12.414 22.586 2.414 4.138 5.518 7.759 9.138 10.862-3.103 7.931-2.758 5.69-7.586 12.759-2.241 3.103-3.966 6.552-5.517 10.172-3.276 7.931-3.104 7.242-3.104 7.931.173.69-.172.173 7.414 5.345 4.483 3.104 6.035 3.966 8.104 5.345 7.586 5.345 7.586 6.379 8.965 6.207.517-.172.345 0 3.793-2.931 8.276-7.241 21.552-20.517 25-30.862 1.724-5.345 2.931-11.035 3.621-16.552 5.345-41.379-15.862-80.689-48.448-107.586h-.518z" fill="#1E1E1E"/><path d="M247.173 292.414c-.518.689-.863 1.207-1.38 1.896-.862 1.207-2.758 2.759-2.586 4.483 0 .345 1.379 1.035 1.724 1.207 1.552 1.035 2.931 2.241 4.311 3.276l6.206 4.655c.69.517 2.069 1.552 2.931 1.552.518 0 1.552-2.242 1.725-2.414.862-1.207 1.724-2.586 2.586-3.793-5.345-4.138-3.966-2.759-15.517-10.862z" fill="#fff"/><path d="M246.483 292.414c-3.276 4.138-1.897 2.069-3.104 3.62-.862.862-1.207 2.069-1.034 3.104.345.517.69 1.034 1.379 1.207a37.198 37.198 0 015.69 4.655c1.207 1.034 5.689 4.31 5.862 4.483.69.517 1.207.862 2.069 1.034 1.724.517 2.414-.172 3.276-1.896 1.034-1.725.862-1.38 3.103-4.828.345-.517.345-1.207-.172-1.552a106.404 106.404 0 00-10.345-6.724c-6.379-3.793-6.035-3.793-6.552-3.448h.173-.173l-.172.345zm14.31 10.862c-.862 1.207-1.724 2.413-2.586 3.793-.172.172-.345.517-.517.862-.862-.345-7.931-5.517-8.104-5.69-1.551-1.207-3.103-2.414-4.827-3.448-.345-.173-.518-.172-.69-.345-.172-.172-.172 0-.172-.172.344-1.035.862-1.897 1.551-2.587.518-.689 1.035-1.551 1.552-2.413 9.655 7.413 6.897 4.827 13.793 10z" fill="#1E1E1E"/><path d="M263.035 313.276c-4.483-5.69-10.517-10-16.552-13.966-1.034-.689-4.31-3.793-5.69-3.448-2.931.69-7.758 8.793-8.965 11.207-.69 1.724-1.724 3.276-2.759 4.655-.862.862-4.655.69-5.862.862-3.793 1.035-7.241 3.448-9.655 6.552-.172.172.69.517.862.517.862.173 1.724.173 2.759 0 1.896 0 3.62.173 5.344.517 1.552.173 2.069 0 1.897 1.897-.345 3.621-1.379 7.241-2.069 10.69-.862 5.517-1.552 11.207-2.414 16.724-.345 2.586-1.379 8.448 1.035 10.345 2.758 2.069 5.862-2.931 6.552-4.656 2.931-7.413 4.31-15.517 6.206-23.275 0 .172 0 .344-.172.517-.517 1.552-.862 3.276-1.034 5-.69 3.103-3.621 9.655-.69 12.241 4.483 3.793 7.931-5 8.621-7.931.172-1.207.517-2.586 1.034-3.793v1.035c-.172 1.206-.517 2.241-.517 3.448 0 1.896 1.896 2.931 3.62 3.103 1.725.173 2.759-1.379 3.276-2.758 1.38-3.449 2.069-7.242 2.414-10.862.173-1.035-.517-2.931.173-3.794 2.586-3.793 12.586-14.827 12.586-14.827z" fill="#fff"/><path d="M261.138 316.207c2.586-2.931 2.414-2.759 2.414-2.931 0-.172 0-.345-.173-.517-.345.172-.517.345 0 0-5.345-7.069-12.586-11.379-16.724-14.31-1.897-1.38-4.483-4.138-6.379-3.449-.862.345-1.724.862-2.242 1.38-3.103 3.275-5.689 7.068-7.758 11.034-.518 1.207-1.207 2.241-1.897 3.103-.345.345-.345.345-1.207.518-3.103.517-4.31-.518-9.138 2.241a24.696 24.696 0 00-3.448 2.414 11.283 11.283 0 00-2.586 3.103c-.173.862.345 1.38 1.207 1.724 1.207.345 2.586.518 3.793.173 1.896 0 3.793.172 5.689.517-.344 3.104-1.034 6.379-1.724 9.483-.689 3.621-1.379 9.138-2.069 14.31-.689 3.448-1.034 6.897-1.206 10.345.172 5.69 3.448 7.069 6.034 5.862 3.793-1.896 5.345-7.586 6.379-11.207l.518.517c4.137 3.276 7.758-.862 9.655-5.862 1.034 1.207 2.758 1.725 4.31 1.725 2.069-.345 3.104-2.242 3.793-4.138 1.207-3.621 1.897-7.414 2.069-11.38-.172-.862-.172-1.724 0-2.414.69-.689 10.173-11.551 10.69-12.241zm-28.448 14.828c-.345 0-.69 2.069-1.035 3.103-2.759 12.242.345-1.034-1.897 8.104-.689 3.62-1.724 7.241-2.931 10.689-.517 1.724-1.206 3.104-2.241 4.483-1.034 1.379-2.241 2.414-3.276 1.034-1.379-2.241-.345-7.586.173-10.172 1.551-10.517 1.034-10.345 3.275-21.207.345-1.552.69-3.276.863-4.827.172-.69 0-1.38-.173-1.897-.517-1.034-1.379-1.207-2.759-1.379-1.724-.345-3.62-.518-5.517-.518-1.724.173-1.724.173-1.551 0 2.068-1.896 4.482-3.448 7.068-4.482 1.207-.345 2.414-.518 3.621-.345 5.173-.517 3.621-2.414 8.966-10.517 1.034-1.552 3.62-5.69 5.517-6.207 1.034 0 3.793 2.241 4.655 2.931 2.069 1.552 10.69 6.207 16.724 13.448-3.103 3.276-8.793 9.483-11.896 13.104-1.207 1.379-1.552 1.724-1.552 3.448.172 1.552.172 3.103-.172 4.655-.345 2.931-1.207 5.69-2.242 8.448-.345.69-1.034 1.724-1.896 1.724-.862 0-1.724-.344-2.242-1.034-1.034-1.035 0-2.586.173-5.517 0-.345-.173-.862-.518-1.035-.517-.345-1.206-.172-1.551.345 0 0 0 .172-.173.172a8.377 8.377 0 00-.689 1.897c-.173 1.034-.518 2.069-.862 3.103-.69 2.069-2.759 6.725-5 6.725-.69 0-1.207-.345-1.552-.863-1.207-1.551-.345-3.965.172-5.862 2.242-9.827 1.38-6.034 2.242-9.655.344-1.379.172-1.207.172-1.379-.172-.69-.862-1.035-1.552-.862-.172 0-.344.172-.344.345z" fill="#1E1E1E"/><path d="M377.345 422.931s14.483-.345 18.103-6.207c8.621-14.138-25.689-22.586-34.482-8.276-1.38 2.414-1.035 5.518.689 7.759 3.448 4.828 10.173 5.862 15.69 6.724z" fill="#fff"/><path d="M377.345 423.448c4.138 0 8.276-.517 12.413-1.724 3.794-1.207 6.552-3.103 7.759-6.724 4.31-12.931-22.414-20.517-34.31-10.862-8.104 6.552-4.138 15.173 5.689 17.931 2.759.69 5.518 1.207 8.449 1.379zm-.518-1.206c-5.344-1.035-12.069-2.414-14.827-7.242-.69-1.207-1.035-2.586-.862-3.965.689-2.242 2.069-3.966 3.965-5.345 10.69-7.586 35.69-1.035 29.138 10.345-1.896 3.276-7.758 4.827-11.551 5.517-1.725.517-3.794.69-5.863.69z" fill="#1E1E1E"/><path d="M300.621 487.931s14.482-.345 18.103-6.207c8.621-14.138-25.689-22.586-34.483-8.276-1.379 2.414-1.034 5.518.69 7.759 3.448 4.827 10.345 5.862 15.69 6.724z" fill="#fff"/><path d="M300.621 488.448c4.137 0 8.275-.517 12.413-1.724 3.793-1.207 6.552-3.103 7.759-6.724 4.31-12.931-22.414-20.517-34.31-10.862-8.104 6.552-4.138 15.172 5.689 17.931 2.759.69 5.69 1.035 8.449 1.379zm-.345-1.206c-5.345-1.035-12.069-2.414-14.828-7.242-.69-1.207-1.034-2.586-.862-3.965.69-2.242 2.069-3.966 3.966-5.345 10.689-7.586 35.689-1.035 29.138 10.345-1.897 3.275-7.759 4.827-11.552 5.517-1.897.517-3.966.69-5.862.69z" fill="#1E1E1E"/><path d="M430.103 482.586s14.483-.345 18.104-6.207c8.62-14.138-25.69-22.586-34.483-8.275-1.379 2.413-1.035 5.517.69 7.758 3.275 4.828 10.172 5.862 15.689 6.724z" fill="#fff"/><path d="M430.104 483.104c4.138 0 8.276-.518 12.414-1.725 3.793-1.206 6.551-3.103 7.758-6.724 4.311-12.758-22.414-20.517-34.31-10.862-8.104 6.552-4.138 15.173 5.689 17.931 2.759.69 5.518 1.035 8.449 1.38zm-.517-1.207c-5.345-1.035-12.069-2.414-14.828-7.242-.69-1.207-1.035-2.586-.862-3.965.69-2.242 2.069-4.138 3.965-5.345 10.69-7.586 35.69-1.035 29.138 10.345-1.896 3.276-7.758 4.827-11.551 5.517-1.897.517-3.794.69-5.862.69z" fill="#1E1E1E"/><path d="M177.345 492.931s14.483-.345 18.103-6.207c8.621-14.138-25.689-22.586-34.482-8.276-1.38 2.414-1.035 5.518.689 7.759 3.448 4.827 10.345 5.862 15.69 6.724z" fill="#fff"/><path d="M177.345 493.448c4.138 0 8.276-.517 12.413-1.724 3.794-1.207 6.552-3.103 7.759-6.724 4.31-12.931-22.414-20.517-34.31-10.862-8.104 6.552-4.138 15.172 5.689 17.931 2.759.517 5.69 1.034 8.449 1.379zm-.345-1.207c-5.345-1.034-12.069-2.413-14.828-7.241-.689-1.207-1.034-2.586-.862-3.966.69-2.241 2.069-3.965 3.966-5.344 10.689-7.587 35.689-1.035 29.138 10.344-1.897 3.276-7.759 4.828-11.552 5.518-1.897.517-3.966.689-5.862.689z" fill="#1E1E1E"/><path d="M180.62 158.448c-7.069 3.621-16.206 3.449-23.793 1.207 1.897 4.655 3.966 9.138 6.38 13.621 1.379 2.586 3.793 11.034 6.896 11.896 0 0 1.379-4.31 1.379-4.655 2.759-7.414 2.759-5.517 9.138-22.069z" fill="#fff"/><path d="M180.448 158.103c-7.069 3.276-15.344 2.759-22.758.518-.517-.345-1.035-.173-1.552.172-.517.69-.345 1.034-.172 1.897 3.965 9.655 5.689 11.896 6.896 15 1.035 2.931 2.414 5.689 3.966 8.448.862 1.207 2.414 2.758 3.965 2.414.173-.173.518-.173.69-.862 0-.173 1.379-4.483 2.069-6.38 2.069-6.034 2.759-6.724 5.69-15 2.069-5.862 2.069-5.517 1.724-5.862-.173-.517-.345-.517-.518-.345zM179.414 160c-5.69 13.103-5.517 11.724-7.759 16.896-2.586 6.207-1.896 6.38-2.413 5.69-1.38-1.896-2.414-4.138-3.276-6.207-2.242-5.517-2.931-5.862-7.069-15 5 1.035 10.172 1.207 15.172 0 5.69-1.207 5.862-2.241 5.345-1.379z" fill="#1E1E1E"/><path d="M157 159.655c-2.069-.517-4.138-1.552-5.689-3.103-5.345-5.173-9.138-17.931-8.793-23.104-4.311.69-8.621 1.552-12.932 2.586 1.38 12.587 4.311 26.552 12.932 35.69 2.068 2.241 5 7.069 8.448 7.414 1.034.172 2.586-4.31 3.276-5.173 1.724-2.758 3.793-5.172 6.207-7.413-1.38-2.069-2.414-4.483-3.449-6.897z" fill="#fff"/><path d="M142.172 132.414c-5.345.862-7.414 1.206-10.172 1.896-4.483 1.035-4.138.517-3.449 5.517 1.207 8.793 3.276 17.931 7.759 25.69 1.552 2.759 3.448 5.345 5.69 7.586 2.241 2.586 4.827 6.38 8.276 7.069.862.173 1.724-.172 2.069-.862.862-1.379 1.724-2.759 2.241-4.31.345-.69.69-1.38 1.207-1.897 3.965-5.862 5-5.517 5-6.379 0-.345 0 0-1.207-2.586-2.586-5.173-2.241-5-2.586-5.173-1.38-.517-2.759-1.034-3.966-1.896-4.138-2.759-6.724-9.655-8.103-14.483-2.414-8.966-.69-9.138-1.897-10.172-.172 0-.517-.173-.862 0zm3.448 17.758c3.449 6.724 6.38 8.621 10.69 10 .345.173-.172-.517 2.931 6.552-2.069 2.069-3.965 4.138-5.69 6.552-1.034 1.379-2.069 4.138-2.931 5-2.413-.518-4.827-4.138-6.551-6.207-1.38-1.38-2.587-2.931-3.621-4.483-5.862-8.276-8.448-19.483-9.655-29.483l-.173-.862c2.931-.862 8.966-1.896 10.345-2.069.862 5.173 2.242 10.173 4.655 15z" fill="#1E1E1E"/><path d="M193.897 130c-.862 0-1.035 5.517-1.035 6.724-.172 4.138-1.207 8.104-2.586 12.069-2.069 4.31-5.345 7.759-9.483 9.828-1.034 2.758-2.241 5.689-3.276 8.448 1.207 2.069 8.793 14.828 11.724 15.862 1.035.345 4.138-3.448 4.828-4.138C202.345 170 207.173 156.379 207.69 145c.345-4.483.345-8.966.172-13.448-4.483-.862-9.483-1.207-13.965-1.552z" fill="#fff"/><path d="M188.724 149.483a19.147 19.147 0 01-7.414 7.413c-2.069 1.207-.862-.517-4.827 9.138-.518 1.38-.863.69 3.103 7.069 1.724 2.587 5.69 8.966 8.276 10.69.862.69 1.896.69 2.758.172.69-.517 1.38-1.034 2.069-1.724.69-.689 3.449-3.793 4.311-4.827 6.724-8.621 10.689-19.138 11.551-30 .173-2.069.69-15.345-.172-16.38-.172-.344-.172-.344-5.172-.862-6.724-.517-8.966-.517-9.138-.517-2.586-.345-.69 11.897-5.345 19.828zm18.103-17.414c.173 6.207-.344 12.414-1.207 18.448-1.034 5.862-2.931 11.379-5.517 16.724-1.896 3.966-4.483 7.414-7.414 10.518-1.034 1.379-2.241 2.586-3.448 3.62-2.758-1.896-8.793-11.724-10.517-14.655 3.448-8.448 2.586-7.241 3.448-7.759 13.966-8.275 10.517-24.482 11.897-28.448 4.655.517 8.103.862 12.758 1.552z" fill="#1E1E1E"/><path d="M10.104 256.379c1.724 3.966 4.482 7.414 8.103 9.655a25.51 25.51 0 00-8.103 10.518c-1.38-4.483-4.483-8.449-8.449-10.862 3.794-2.069 6.725-5.345 8.449-9.311z" fill="#fff"/><path d="M8.035 258.793a23.494 23.494 0 01-4.138 4.138C1.138 265 .62 264.655.448 265.689c.173 1.38 1.38.863 4.483 4.138 1.035 1.207 1.897 2.414 2.759 3.793 1.551 3.104 1.034 3.449 2.069 4.138.517.173 1.207 0 1.551-.344.345-.345.173-.345.69-1.552 1.724-3.621 4.31-6.724 7.414-9.31 1.207-2.587-3.966-1.38-8.62-10.518 0-.172-.173-.345-.346-.345-1.034.173-.69.69-2.413 3.104zm8.275 7.241c-2.413 2.069-4.482 4.483-6.034 7.069-1.38-3.103-3.62-5.689-6.38-7.586 2.76-2.069 4.828-4.655 6.208-7.759 1.379 3.276 3.448 6.207 6.206 8.276zM151.311 394.31s-6.035 66.207-6.724 68.448c-3.449 12.586-80.69 13.966-83.966-2.241-.517-2.759-11.38-66.207-10-67.759 2.241-2.241 6.724-2.413 9.655-2.931 6.897-1.551 13.621-3.793 20.517-5.172 7.587-1.207 15.173-1.552 22.932-.69 16.379.862 32.069 6.035 47.586 10.345z" fill="#1E1E1E"/><path d="M64.76 387.414c-8.104 2.069-8.794 1.379-11.897 2.586-1.207.345-2.242 1.034-3.104 1.896-.69.69-.517 1.897-.345 4.656.862 9.138 4.138 30.172 5.69 39.138 4.483 26.896 4.31 26.034 5.172 27.413 1.724 2.414 3.966 4.311 6.724 5.345 12.587 5.69 36.552 6.035 51.035 4.828 7.241-.69 25.345-2.931 27.759-9.828.689-2.069 6.379-68.965 6.207-68.965v-.345c-.345-.517-20.173-6.035-22.069-6.552-7.759-2.241-15.863-3.621-23.794-4.483-21.896-1.896-26.724.69-41.379 4.311zm86.034 7.413c-.69 6.897-6.035 59.828-7.069 66.897-.173 1.207-.862 2.414-1.897 2.931-2.241 1.379-4.827 2.586-7.414 3.103-11.034 3.104-26.379 3.621-37.758 3.104-8.449-.345-28.449-2.069-33.621-8.793-.69-.69-1.034-1.724-1.034-2.586-.863-5-10.518-61.38-10-66.207 1.724-1.552 5.517-1.897 7.93-2.242 4.828-.862 14.31-3.965 21.207-5.344 4.31-.863 8.621-1.207 12.931-1.207 18.449 0 30.518 2.931 48.449 7.931 9.138 2.586 8.276 2.241 8.276 2.413z" fill="#1E1E1E"/><path d="M151.483 396.896c-5.172 3.966-33.793 13.104-55.862 8.449-7.414-1.552-55.172-4.483-42.586-16.725 8.276-8.103 48.965-11.207 55.517-9.482 6.38 1.379 50.69 6.551 42.931 17.758z" fill="#fff"/><path d="M101.655 377.241c-11.207.173-22.413 1.38-33.448 3.793-6.38 1.38-17.759 4.483-18.448 11.035-.69 10.862 36.38 12.586 46.207 14.483 6.379 1.206 12.758 1.379 19.31.862 16.035-1.207 31.035-6.552 35.862-9.483.173 0 .345 0 .517-.173l1.035-1.551c3.793-8.966-22.414-14.138-32.414-16.035-12.414-2.586-12.241-2.931-18.621-2.931zm7.069 2.931c6.207 1.38 46.552 6.035 42.931 15.517-.344.863-.517 1.035-1.724 1.552-6.207 3.276-18.276 6.035-25.689 7.242-9.483 1.551-19.138 1.379-28.621-.345-7.07-1.38-34.31-3.449-41.724-9.311-1.724-1.379-1.724-2.413-1.035-3.793.862-1.379 2.242-2.414 3.793-3.276 11.897-6.379 45.862-9.137 52.069-7.586z" fill="#1E1E1E"/><path d="M101.828 389.138c15.517-5.517 31.724-9.138 47.241-15.173 9.483-3.62 19.138-6.724 27.931-12.069 5-3.103 8.966-5 12.069-10.344 1.897-2.931 3.276-6.035 4.138-9.483 1.035-8.104-2.931-12.414-9.655-15.69-8.965-4.31-19.483-4.483-28.793-.517-5.345 2.586-10.345 6.034-14.655 10-10.345 8.276-19.138 18.276-25.862 29.655-6.897 11.379-5.173 7.931-12.414 23.621z" fill="#fff"/><path d="M159.069 322.586a40.397 40.397 0 00-9.655 4.31 106.515 106.515 0 00-15.517 12.414c-12.242 11.552-18.621 21.035-26.207 35.517-1.379 2.759-1.724 3.449-6.379 13.621-.173.517-.173.517-.173.69 0 .345.345.517.517.517h.173c-.173-.69-.173-.69 0 0 12.586-4.138 22.759-6.552 35.69-10.517 4.655-1.38 7.068-2.242 21.724-7.586 6.207-2.242 12.241-5 17.931-8.276 6.551-3.966 9.827-5.518 13.448-11.897 1.897-2.758 3.103-5.862 3.793-9.138.517-3.276.173-6.551-1.379-9.483-3.793-7.413-18.448-14.31-33.966-10.172zm9.655 1.379c8.621 0 16.207 3.449 19.828 7.069 1.552 1.38 2.586 3.104 3.103 5.173.518 2.241.518 4.483 0 6.551-1.206 3.449-2.758 6.725-4.827 9.828-.69 1.035-1.552 1.897-2.414 2.759-3.793 2.931-7.931 5.517-12.069 7.758-5 2.587-10.345 4.828-15.517 6.724-9.655 3.621-9.483 3.621-14.483 5.518-12.759 4.482-26.724 8.276-39.31 12.758 3.793-8.276 8.103-16.379 13.103-23.965 2.586-4.138 5.517-8.104 8.793-11.724 7.414-8.449 15.862-15.862 25-22.414 5.345-3.966 12.069-6.035 18.793-6.035z" fill="#1E1E1E"/><path d="M99.932 389.483c-15.173-6.552-31.035-11.207-46.207-18.276-9.31-4.31-18.793-8.104-27.242-13.966-4.827-3.448-8.62-5.689-11.379-11.207-1.724-2.931-2.931-6.379-3.448-9.827-.518-8.104 3.62-12.242 10.69-15.173 9.31-3.793 19.827-3.275 28.793 1.38 5.172 2.931 9.827 6.724 13.965 10.862a117.71 117.71 0 0123.966 31.207c6.034 12.586 4.655 9.138 10.862 25z" fill="#fff"/><path d="M35.104 317.586c-7.069 0-16.034 2.586-20.862 7.414-4.483 4.655-4.828 11.207-2.414 17.241 2.759 6.897 5.172 9.828 8.966 12.759 1.551 1.207 5.517 3.965 6.551 4.483 2.759 1.896 5.69 3.448 8.621 4.999 6.207 3.104 21.552 9.828 21.724 9.828 14.31 6.035 27.414 9.828 42.07 15.862.171-.517.344-.689 0 0 .344.173.516 0 .689-.345 0-.344.172 0-1.552-4.482-2.586-6.725-2.586-6.725-2.931-7.759a182.343 182.343 0 00-10.862-21.724c-5.345-8.276-11.552-15.862-18.62-22.586-9.311-9.311-17.587-15.69-31.38-15.69zm14.138 5.517c6.896 3.276 13.965 10 19.655 15.862a104.695 104.695 0 0120.345 27.931c3.793 6.897 6.896 14.138 9.655 21.552-20.862-9.138-22.759-7.759-56.034-23.448a97.164 97.164 0 01-16.552-9.311c-6.207-4.31-7.931-5.689-11.035-12.069-1.724-3.793-2.93-7.069-2.069-11.551.518-2.759 2.242-5.173 4.483-6.724 7.414-5.173 20.173-7.242 31.552-2.242z" fill="#1E1E1E"/><path d="M165.966 344.483c-22.586 1.724-59.655 31.034-62.931 43.276l62.931-43.276z" fill="#fff"/><path d="M165.794 343.965c-15.173.518-33.966 12.414-45.862 22.242-5.518 4.655-15.69 14.31-17.414 21.379 0 .173 0 0 .345.862.862-.517.517-.172.862-1.034 4.655-11.552 39.482-38.104 60-41.897 2.586-.517 1.896 0 2.586-.862-.517-.862-.345-.69-.517-.69z" fill="#1E1E1E"/><path d="M38.897 340.862c22.413 3.276 57.414 34.827 60 47.241l-60-47.241z" fill="#fff"/><path d="M38.38 340.69c.861 1.207-.173.172 4.482 1.551 19.828 6.207 48.793 31.552 54.655 43.449 1.38 2.931.345 2.069 1.552 2.758l.345-.689c-2.07-13.104-35.69-44.483-59.483-47.587-1.207 0-.862 0-1.552.518z" fill="#1E1E1E"/><path d="M101.483 301.724c-2.069 9.483-.862 20.173-.517 29.655.517 14.138 1.379 53.966.517 58.276" fill="#fff"/><path d="M100.794 300.517c-.518.69-.862.517-2.07 6.035-1.034 5.517-1.551 11.207-1.379 16.724.345 49.483 2.414 55.345 2.759 65.172 0 .69 0 1.552.345 2.242l.862.517 1.034-.173c.863-1.034.69-.862.69-1.207l.517-2.586c2.069-14.827 2.069-26.551 1.724-41.379-.689-26.207-2.758-30.172-2.413-40.172.172-4.483.517-2.759 0-4.656l-.862-.689-1.207.172z" fill="#1E1E1E"/><path d="M54.414 244.483c15.172-25.862 47.931-25.173 54.655-24.311 8.104 1.035 16.724 2.587 23.793 6.897 6.552 3.793 12.069 9.138 16.38 15.517 4.655 6.552 7.758 14.138 9.482 22.069 5.173 30.862-21.551 53.793-48.965 59.828-5.862 1.207-11.38.344-17.242-.345-12.069-1.379-25.517-5.862-33.448-15.517-14.31-17.587-19.138-39.483-4.655-64.138z" fill="#fff"/><path d="M92.518 219.655C75.966 222.241 62.173 230 53.897 244.483c-13.448 22.758-11.38 45.344 4.655 65 7.242 8.965 18.793 13.448 30.173 15.344 15.517 2.587 19.655 1.552 25.689-.172 6.897-1.896 13.621-4.828 19.655-8.621 25-15.862 35.173-42.413 18.793-70.344-4.482-8.104-11.034-14.656-18.793-19.483-3.62-2.242-7.586-3.793-11.724-4.828-9.827-2.586-20-3.276-29.827-1.724zm25.517 3.104c7.586 1.379 14.655 4.827 20.517 9.827 6.897 5.862 12.242 13.276 15.517 21.552 11.897 27.931-5.172 54.31-33.448 65.517-4.655 1.897-9.655 3.276-14.827 3.966-5.173.517-15.69-1.035-19.31-1.725-18.277-3.62-26.38-11.379-33.277-23.448-10-17.586-8.793-35.689 1.552-53.793 7.414-12.414 19.483-19.483 33.793-22.414 9.828-2.069 19.828-1.896 29.483.518z" fill="#1E1E1E"/><path d="M59.414 250c13.103-21.207 41.551-20.69 47.414-19.828 7.069.862 14.482 2.242 20.517 5.69 5.689 3.103 10.517 7.414 14.138 12.586 3.965 5.345 6.724 11.552 8.103 18.104 4.483 25.172-18.621 44.137-42.414 48.965-5.172 1.035-9.827.345-15-.345-10.517-1.207-22.069-4.655-28.965-12.758C51.137 288.276 47 270.345 59.414 250z" fill="#fff"/><path d="M90.449 230.172c-12.931 2.414-24.483 8.449-31.552 20-1.207 1.897-2.241 3.966-3.276 6.035-4.655 9.138-5.69 19.655-2.759 29.483 2.414 7.758 6.897 15 12.76 20.689 8.792 7.759 21.206 10 32.93 10.862 4.311.345 8.448 0 12.586-1.207 24.656-6.551 45-26.724 39.311-51.206-2.242-8.449-6.724-16.035-12.759-22.242-3.621-3.448-7.759-6.379-12.414-8.621-4.138-1.724-8.62-2.931-13.103-3.62-7.069-1.552-14.483-1.552-21.724-.173zm30.689 3.966c10.518 3.621 20.173 12.414 25.518 25.517 8.965 21.897-5.173 41.897-27.759 51.379-4.483 1.897-9.138 3.104-13.966 3.966-5.172.517-14.827-.862-18.275-1.552-15-2.931-21.725-8.965-27.414-18.103-9.483-15-8.276-30.173.69-45 12.068-19.138 39.827-23.449 61.206-16.207z" fill="#1E1E1E"/><path d="M85.448 260.517c.69-13.276 25.69-16.552 26.897-1.034.517 6.896-5.517 10.689-11.379 12.413-8.449 2.414-19.483 6.552-17.242 15 4.655 17.242 34.138 10.862 31.897-1.551" fill="#fff"/><path d="M97.66 247.586c7.758 0 15.861 5 16.034 12.931l-.69.862c-1.207-1.207-.517-.172-1.207-2.414-2.241-8.103-15.172-10.862-21.034-5.689-2.587 2.413-3.449 6.034-2.587 9.31.69 2.069 2.07 3.621 3.966 4.828 3.104 2.068 5.517 2.413 10 3.793 7.241 2.413 15.345 6.724 14.483 14.31-.345 2.414-1.207 4.655-2.586 6.552-9.138 12.931-35 5.345-32.242-7.069l.862-.69c.69 1.035.69.862.69 1.207-1.035 10.517 23.621 15 28.793 1.897 1.035-1.897.862-4.311-.345-6.207-3.62-4.828-13.793-7.069-17.414-8.449-10.344-4.138-10.172-11.207-10.344-11.379-.69-7.241 4.482-13.793 13.62-13.793z" fill="#1E1E1E"/><path d="M98.207 240.689c0 10 2.242 51.725 2.759 64.311l-2.759-64.311z" fill="#fff"/><path d="M100.763 240.689c1.034 13.104.172 29.828-.69 42.931-.345 5-.517 7.759-2.07 21.38l-.861.862-.69-.862c-.345-8.966-.345-16.035-.172-21.38 1.207-29.655 2.069-33.275 2.93-42.758l.863-.862.69.689z" fill="#1E1E1E"/><path d="M67.69 413.448l-1.896.862-.69 1.897c.517 5.172.517 15.862 2.586 28.103.69 3.966 1.724 7.759 1.897 8.621l.517.69.69.172.69-.517c.69-2.759-.69 2.241-.863-22.414 0-1.724-.172-14.31-.172-15l-.862-1.897-1.897-.517z" fill="#fff"/></g><defs><clipPath id="clip0"><path fill="#fff" transform="matrix(-1 0 0 1 452 0)" d="M0 0h451.552v500H0z"/></clipPath></defs></svg>