<svg width="64" height="60" fill="none" xmlns="http://www.w3.org/2000/svg"><path d="M63.076 54.124H59V19.979a3.946 3.946 0 00-3.938-3.938H43.034a.945.945 0 00-.938.938c0 .512.425.937.938.937h12.028c1.137 0 2.062.925 2.062 2.063v34.145h-3.213c.05-.35.075-.713.075-1.063a7.956 7.956 0 00-7.951-7.952 7.7 7.7 0 00-1.763.2c-1.013-1.95-3.026-3.213-5.251-3.213-.726 0-1.438.138-2.1.388a4.953 4.953 0 00-4.914-4.401 4.953 4.953 0 00-4.914 4.4 5.69 5.69 0 00-2.1-.387 5.917 5.917 0 00-5.251 3.213 7.622 7.622 0 00-1.763-.2 7.956 7.956 0 00-7.952 7.952c0 .362.025.713.075 1.063H6.89V19.979c0-1.138.925-2.063 2.063-2.063H20.98a.945.945 0 00.938-.938.945.945 0 00-.938-.937H8.952a3.946 3.946 0 00-3.938 3.938v34.145H.938A.945.945 0 000 55.06v2A2.943 2.943 0 002.938 60h58.125A2.943 2.943 0 0064 57.062v-2a.918.918 0 00-.925-.938zm-.938 2.938c0 .587-.475 1.063-1.063 1.063H2.938a1.062 1.062 0 01-1.063-1.063v-1.063h12.09a.945.945 0 00.938-.938.945.945 0 00-.938-.937H11.99a6.07 6.07 0 01-.1-1.063 6.083 6.083 0 016.076-6.076c.663 0 1.338.112 1.988.337.238.088.5.063.713-.037.225-.113.4-.3.475-.538a4.06 4.06 0 013.838-2.763c.95 0 1.85.338 2.6.975a.959.959 0 001.126.063c.35-.225.5-.663.375-1.063a2.875 2.875 0 01-.162-.913 3.081 3.081 0 013.075-3.075 3.081 3.081 0 013.076 3.075c0 .275-.05.563-.163.913-.125.4.025.825.375 1.063.35.225.8.2 1.126-.063a3.978 3.978 0 012.6-.975 4.072 4.072 0 013.838 2.763c.075.238.25.425.476.538a.887.887 0 00.712.037 6.036 6.036 0 011.988-.337 6.083 6.083 0 016.076 6.076c0 .362-.037.713-.1 1.063h-34.02a.945.945 0 00-.937.937c0 .513.425.938.938.938h44.159v1.063z" fill="#1E1E1E"/><path d="M19.954 27.568a3.964 3.964 0 00-.912 2.526v2.913c0 .337.175.638.462.813.15.087.313.124.475.124a.888.888 0 00.463-.125l6.676-3.763c.25.463.525.925.813 1.375l-.838 3.364a.887.887 0 00.175.8c.188.225.45.363.738.363h8.014a.942.942 0 00.738-.363c.175-.225.237-.525.175-.8l-.838-3.364c.288-.45.55-.9.813-1.375l6.676 3.763c.138.075.3.125.463.125a.93.93 0 00.938-.938v-2.925a3.96 3.96 0 00-.913-2.525l-4.451-5.339c.237-1.388.35-2.813.35-4.25 0-3.426-.663-6.727-1.963-9.828A24.172 24.172 0 0032.682.263a.928.928 0 00-1.313 0 24.169 24.169 0 00-5.326 7.876 25.254 25.254 0 00-1.963 9.827c0 1.438.125 2.85.35 4.239l-4.476 5.363zm.963 3.838v-1.312c0-.488.175-.95.475-1.326l3.513-4.213c.35 1.313.813 2.6 1.363 3.826l-5.351 3.026zm8.277 2.664l.537-2.138h4.551l.538 2.138h-5.626zm13.427-5.302c.313.375.476.838.476 1.326v1.313l-5.364-3.026a24.44 24.44 0 001.363-3.826l3.526 4.213zM32.007 2.288a22.358 22.358 0 013.863 5.739h-7.726a22.145 22.145 0 013.863-5.739zM27.368 9.89h9.29a23.484 23.484 0 011.438 8.076c0 4.314-1.163 8.477-3.364 12.09h-5.438c-2.2-3.613-3.363-7.776-3.363-12.09 0-2.775.5-5.513 1.437-8.076z" fill="#1E1E1E"/><path d="M35.945 16.979a3.946 3.946 0 00-3.938-3.939 3.954 3.954 0 00-3.939 3.939 3.954 3.954 0 003.939 3.938 3.946 3.946 0 003.938-3.939zm-6.001 0c0-1.138.925-2.063 2.063-2.063 1.137 0 2.063.925 2.063 2.063a2.065 2.065 0 01-2.063 2.062 2.065 2.065 0 01-2.063-2.063z" fill="#1E1E1E"/></svg>